<?xml version="1.0" encoding="utf-8"?>
<!-- Generator: Adobe Illustrator 16.0.4, SVG Export Plug-In . SVG Version: 6.00 Build 0)  -->
<!DOCTYPE svg PUBLIC "-//W3C//DTD SVG 1.1//EN" "http://www.w3.org/Graphics/SVG/1.1/DTD/svg11.dtd">
<svg version="1.1" id="Layer_1" xmlns="http://www.w3.org/2000/svg" xmlns:xlink="http://www.w3.org/1999/xlink" x="0px" y="0px"
	 width="300px" height="65px" viewBox="0 0 300 65" enable-background="new 0 0 300 65" xml:space="preserve">
<g id="Boundary">
	<rect fill="none" width="300" height="65"/>
</g>
<g id="Mutual__x28_Blue_x29_">
	<g>
		<g>
			<path fill="#003C78" d="M54.898,55.262c-0.623,0-1.127-0.507-1.127-1.128c0-0.62,0.504-1.127,1.127-1.127
				c0.622,0,1.124,0.507,1.124,1.127C56.022,54.755,55.52,55.262,54.898,55.262 M54.901,52.739c-0.771,0-1.394,0.622-1.394,1.394
				c0,0.768,0.624,1.396,1.394,1.396s1.395-0.629,1.395-1.396C56.296,53.361,55.671,52.739,54.901,52.739"/>
			<path fill="#003C78" d="M55.563,54.913c-0.035-0.052-0.178-0.25-0.252-0.356c-0.059-0.08-0.112-0.146-0.147-0.188
				c-0.029-0.033-0.097-0.128-0.114-0.145c0.278,0,0.428-0.186,0.428-0.422c0-0.15-0.076-0.254-0.154-0.322
				c-0.083-0.063-0.206-0.106-0.416-0.106h-0.486v1.541h0.243V54.23c0.016,0,0.157,0,0.157,0s0.167,0.26,0.301,0.455
				c0.069,0.104,0.093,0.14,0.145,0.229L55.563,54.913L55.563,54.913z M55.224,53.802c0,0.089-0.033,0.164-0.087,0.208
				c-0.061,0.053-0.146,0.074-0.301,0.074h-0.169v-0.536h0.181c0.094,0,0.164,0.013,0.212,0.031
				C55.157,53.613,55.224,53.695,55.224,53.802"/>
			<g>
				<path fill="#003C78" d="M32.5,5C17.312,5,5,17.315,5,32.502C5,47.689,17.312,60,32.5,60c15.187,0,27.501-12.311,27.501-27.497
					C60.001,17.316,47.687,5,32.5,5z M32.5,59.542c-14.934,0-27.042-12.106-27.042-27.039C5.458,17.567,17.566,5.46,32.5,5.46
					c14.935,0,27.043,12.108,27.043,27.043C59.543,47.434,47.435,59.542,32.5,59.542z"/>
				<path fill="#003C78" d="M32.498,7.108c-14.013,0-25.381,11.368-25.381,25.382c0,14.062,11.368,25.38,25.381,25.38
					c14.014,0,25.383-11.315,25.383-25.38C57.881,18.477,46.512,7.108,32.498,7.108z M13.998,23.365h4.487c0,0,0.5,0,0.7,0.35
					c0,0.047,0.749,1.546,0.749,1.546h-5.935L13.998,23.365L13.998,23.365z M19.982,26.555c0,0,0.548-0.049,0.696,0.349
					c0,0.052,0.849,1.696,0.849,1.696h-7.479v-2.045H19.982z M13.399,35.282c0.298-1.396,0.648-2.741,1.248-3.989h1.645
					l-0.799,2.546c0,0,0.748,0,1.047,0.595c0.251,0.451,0.149,0.851,0.149,0.851L13.399,35.282L13.399,35.282z M24.123,51.587
					l-2.846-1.545l1.498-2.194l-1.047-2.543h4.288L24.123,51.587z M49.705,38.424c-0.651,0.051-1.45-0.8-1.799,0.051l3.492,1.744
					c0,0-1.398,3.793-3.542,3.54c-0.646-0.048-1.145-0.25-1.744-0.698c-0.25-0.194-0.548-0.297-0.896-0.049l2.891,2.942
					c-1.397,1.198-2.046,1.996-3.345,2.146c-1.292,0.147-2.093-0.399-2.889-1.346c-0.201-0.251-0.447-0.199-0.596-0.15l1.494,3.342
					c0,0-1.494,0.697-1.945,0.844c-0.447,0.203-0.896,0.253-1.494,0.203c-0.6-0.053-0.999-0.25-1.448-0.647
					c-0.5-0.446-0.746-0.995-0.947-1.646c-0.1-0.301-0.4-0.352-0.649-0.352c0,0,0.4,2.545,0.599,3.741
					c-1.942,0.498-3.939-0.149-5.086-1.845c-0.45-0.652-0.845-1.346-0.845-2.196v-6.429h-3.843c0-0.053-0.698,2.242-0.698,2.242
					H15.392l-0.697-2.094l0.798-1.05l-0.498-1.743l0.299-0.4h1.346l0.349,0.65h0.999l-0.697-1.701h-2.148v-1.092h2.795l0.595,1.594
					h1.15l-1.396-4.039H17.64v-2.741h1.894l0.3-0.65h2.641l4.639,9.427h3.79V27.654h-1.313c0.011,0.114,0.017,0.231,0.017,0.348
					c0,1.745-1.446,3.192-3.191,3.192c-1.744,0-3.19-1.447-3.19-3.192c0-1.471,0.97-2.671,2.278-3.059l-1.022-1.364
					c-0.276,0.377-0.723,0.635-1.208,0.635c-0.675,0-1.225-0.446-1.421-1.03c-0.169-0.428-0.136-0.934,0.232-1.393
					c0.052-0.065,0.11-0.128,0.175-0.191c0.066-0.06,0.137-0.12,0.215-0.181l-1.444-1.046c-1.047,1.795-2.843,0.398-2.544-0.548
					c5.536-4.591,12.169-6.382,18.652-8.728c0.547,0.65,0.848,1.747,0.347,2.396c-0.347,0.549-1.045,0.746-0.647,1.394l3.888-2.043
					c0.649,0.797,1.298,1.545,1.747,2.344c0.348,0.597,0.197,1.147-0.198,1.695c-0.25,0.4-0.947,0.697-0.701,1.297l4.044-1.995
					c0.994,1.243,2.34,2.542,1.894,4.188c-0.4,1.147-1.048,1.196-1.5,1.547c-0.295,0.198-0.248,0.598-0.199,0.796
					c0,0,2.395-1.098,3.541-1.546c0.697,1.496,2.095,2.893,1.147,4.936c-0.451,0.651-0.946,0.897-1.843,1.296
					c-0.3,0.102-0.45,0.401-0.35,0.7c0,0,3.74-0.747,3.74-0.7c0.048,0.75,1.146,4.238-0.85,5.287
					c-0.948,0.598-1.793-0.097-1.995,0.896l3.593,0.353c-0.25,1.045-0.401,1.896-0.701,2.895
					C51.797,37.876,50.55,38.424,49.705,38.424z"/>
			</g>
		</g>
		<g>
			<polygon fill="#003C78" points="167.045,36.758 167.045,27.467 161.248,27.467 161.248,36.758 161.248,46.251 172.848,46.251 
				172.848,43.988 167.045,43.988 			"/>
			<polygon fill="#003C78" points="114.478,29.862 118.51,29.989 118.51,36.758 118.51,46.251 124.307,46.251 124.307,36.758 
				124.307,29.862 128.472,29.862 128.472,27.467 114.478,27.467 			"/>
			<path fill="#003C78" d="M108.047,36.758v7.977c-1.638,0.13-3.024-0.267-3.024-1.76v-6.217v-9.291h-5.419v9.291v3.823v1.38
				c0,2.143,1.015,3.203,2.265,3.785c0.668,0.312,1.389,0.505,2.015,0.505h9.709v-0.505v-8.988v-9.291h-5.545L108.047,36.758
				L108.047,36.758z"/>
			<path fill="#003C78" d="M156.328,27.467h-10.335v1.764h6.305c0.502,0,0.882,0.378,1.132,0.758c0.379,0.748,0.25,1.761,0.25,1.761
				v5.009v7.976c-1.64,0.131-2.646,0-2.771-1.758v-6.218v-3.618h-2.9c-1.507,0.004-2.773,1.43-2.773,3.24v0.377v3.823v1.506
				c0,1.899,0.635,3.027,1.641,3.659c0.505,0.381,1.133,0.505,1.766,0.505h10.589v-0.505v-8.988v-5.892v-0.878
				C159.229,28.741,157.968,27.467,156.328,27.467z"/>
			<path fill="#003C78" d="M137.668,36.758v7.969c-1.636,0.129-3.023-0.266-3.023-1.76v-6.209v-9.296h-5.42v9.296v3.812v1.386
				c0,2.142,1.016,3.206,2.267,3.783c0.667,0.31,1.388,0.505,2.015,0.505h9.71V45.74v-8.981v-9.296h-5.548L137.668,36.758
				L137.668,36.758z"/>
			<path fill="#003C78" d="M292.1,27.462h-10.334v1.763h6.301c0.502,0,0.879,0.382,1.136,0.759c0.377,0.748,0.252,1.761,0.252,1.761
				v5.014v7.974c-1.64,0.123-2.646,0-2.776-1.762v-6.212v-3.62h-2.898c-1.502,0.002-2.77,1.43-2.77,3.236v0.384v3.816v1.506
				c0,1.899,0.631,3.028,1.643,3.661c0.502,0.379,1.127,0.503,1.761,0.503h10.59v-0.503v-8.983V30.86v-0.875
				C294.999,28.736,293.74,27.462,292.1,27.462z"/>
			<path fill="#003C78" d="M260.707,27.464h-10.338v1.761h6.303c0.503,0,0.885,0.382,1.135,0.762
				c0.379,0.748,0.252,1.758,0.252,1.758v5.014v7.974c-1.642,0.127-2.646,0-2.772-1.762v-6.212v-3.62h-2.897
				c-1.508,0.002-2.773,1.432-2.773,3.236v0.384v3.816v1.508c0,1.897,0.629,3.03,1.641,3.662c0.504,0.378,1.135,0.502,1.766,0.502
				h10.588v-0.502v-8.986V30.86v-0.872C263.605,28.736,262.346,27.464,260.707,27.464z"/>
			<polygon fill="#003C78" points="273.697,29.989 273.697,35.283 273.697,36.036 270.926,36.036 270.926,35.283 270.926,29.989 
				270.926,27.467 265.632,27.467 265.632,29.989 265.632,35.283 265.632,36.758 265.632,40.582 265.632,45.747 265.632,46.251 
				270.926,46.251 270.926,45.747 270.926,40.582 270.926,38.312 273.697,38.312 273.697,40.582 273.697,45.747 273.697,46.251 
				278.996,46.251 278.996,45.747 278.996,40.582 278.996,36.758 278.996,35.283 278.996,29.989 278.996,27.467 273.697,27.467 			
				"/>
			<path fill="#003C78" d="M243.639,27.467h-19.236v3.648v5.643v9.491h5.794v-9.491v-5.643V29.23c1.641,0,2.772,0.378,2.772,1.885
				v5.643v9.491h5.93v-0.505v-8.986v-5.643V29.23c1.638,0,2.772,0.378,2.772,1.885v5.643v9.491h5.921v-9.491v-5.79
				C247.592,29.457,245.657,27.467,243.639,27.467z"/>
			<path fill="#003C78" d="M222.77,27.467c-0.09-0.309-0.179-0.637-0.271-0.955v-0.007c-0.174-0.603-0.367-1.201-0.615-1.684
				c-2.009-4.917-6.178-7.19-11.847-7.19c-6.179-0.128-10.211,2.898-12.104,7.19c-0.225,0.557-0.451,1.119-0.588,1.686h-0.002
				c-0.015,0.067-0.031,0.133-0.043,0.2c-0.255,1.014-0.379,2.142-0.5,3.281c-0.25,1.761-0.25,3.649-0.126,5.294
				c0.068,0.503,0.146,0.995,0.229,1.476h0.002c0.207,1.168,0.468,2.217,0.842,3.062c0.104,0.238,0.186,0.505,0.312,0.761
				c1.508,2.646,3.28,4.28,5.42,5.165c2.02,0.887,4.156,1.256,6.68,1.127c2.148,0,4.029-0.378,5.673-1.127
				c1.987-0.91,3.752-2.098,5.044-3.659c0.404-0.485,0.629-1.004,0.884-1.506c0.466-1.126,0.796-2.45,1.039-3.823v-0.005
				c0.086-0.485,0.16-0.979,0.229-1.471c0.121-1.771,0.121-3.66,0-5.294C223.025,29.104,222.895,28.218,222.77,27.467z
				 M216.076,36.76c-0.021,1.34-0.096,2.61-0.373,3.821c-0.625,2.771-2.141,4.785-5.669,4.785c-3.78,0-5.421-1.888-6.05-4.785
				c-0.19-1.14-0.309-2.415-0.354-3.823V36.75c-0.014-0.475-0.022-0.965-0.022-1.468v-3.027v-2.267c0-1.224,0-2.392,0.065-3.474
				c0.038-0.593,0.097-1.161,0.185-1.694c0.379-3.409,1.765-5.419,6.179-5.419c3.903,0,5.297,2.265,5.795,5.419
				c0.09,0.523,0.146,1.091,0.185,1.691v0.005c0.067,1.099,0.07,2.316,0.07,3.6v2.139v3.027c0,0.5,0,0.993-0.008,1.476
				L216.076,36.76L216.076,36.76z"/>
			<polygon fill="#003C78" points="88.368,26.512 85.805,36.758 85.607,37.555 85.388,36.758 82.556,26.512 80.313,18.391 
				72.749,18.391 72.749,26.512 72.749,36.758 72.749,46.251 75.396,46.251 75.396,36.758 75.396,26.512 75.396,24.187 
				76.033,26.512 78.842,36.758 81.443,46.251 85.858,46.251 88.302,36.758 90.935,26.512 91.533,24.187 91.533,26.512 
				91.533,36.758 91.533,46.251 97.584,46.251 97.584,36.758 97.584,26.512 97.584,18.391 90.397,18.391 			"/>
			<path fill="#003C78" d="M188.869,26.507h-0.006c-0.647,0.908-1.016,1.583-1.016,1.583h-7.566
				c-1.137-0.117-1.887-0.239-3.149,0.128c-2.808,0.815-3.659,2.867-4.284,4.292c-0.51,1.147-0.521,2.59,0.375,3.652
				c0.19,0.227,0.414,0.419,0.66,0.596h0.016c1.767,1.188,4.852,1.024,6.785,0v-0.01c0.121-0.064,0.242-0.137,0.354-0.207
				c1.64-1.059,2.981-3.699,2.364-6.553c-0.03-0.137-0.096-0.252-0.096-0.38h3.776c0,0-0.124,0.128-0.25,0.38
				c-0.383,1.003-1.382,3.282-2.267,5.294c-0.203,0.53-0.438,1.032-0.674,1.476v0.002c-0.207,0.396-0.412,0.748-0.588,1.045
				c-0.633,1.129-1.826,3.713-4.664,4.661c-2.516,0.837-5.291-0.708-5.291-0.708l-0.131,1.342c0.453,0.229,0.639,0.334,0.84,0.416
				c0.244,0.102,0.508,0.159,1.306,0.342c2.989,0.697,7.186-1.262,9.202-3.274c0.535-0.541,1.435-1.354,2.701-3.823v-0.01
				c0.224-0.436,0.457-0.925,0.703-1.468c0.248-0.503,0.504-1.14,0.752-1.897c0.631-1.636,1.26-3.776,1.26-3.776h5.045l0.382-1.519
				h-4.662c0.134-0.524,0.346-1.072,0.567-1.575h0.002c0.367-0.804,0.771-1.476,0.945-1.694c0.549-0.685,1.029-1.733,3.146-1.645
				v-1.381c-2.1,0.489-3.525,1.363-4.674,2.494C189.98,25.033,189.348,25.831,188.869,26.507z M179.65,33.639
				c-0.271,0.625-0.506,1.142-0.881,1.646c-0.631,0.88-1.371,1.378-2.271,1.13c-0.736-0.202-1.132-0.509-1.132-1.13
				c0-0.636,0.3-1.368,0.626-2.144c0.277-0.636,1.643-3.15,1.643-3.15c0.254-0.38,0.708-0.69,1.135-0.758
				c1.004-0.162,1.769,0.129,1.89,0.758C180.912,31.118,180.244,32.278,179.65,33.639z"/>
		</g>
	</g>
</g>
<g id="Guides" display="none">
</g>
</svg>
